# xmcd
#
# Track frame offsets:
#	150
#	30094
#	52327
#	64466
#	81401
#	101011
#	119638
#
# Disc length: 2102 seconds
#
# Revision: 1
# Processed by: cddbd v1.5.2PL0 Copyright (c) Steve Scherf et al.
# Submitted via: audiograbber 1.83.01
#
DISCID=63083407
DTITLE=Lutz Scheufler - Dr. Blues
DYEAR=2004
DGENRE=Blues
TTITLE0=Dr. Blues
TTITLE1=der Blinde
TTITLE2=ich habe den Blues
TTITLE3=Alles verfällt
TTITLE4=Ungeschminkt
TTITLE5=Wahrheit die nur wehtut
TTITLE6=Predigt von Dr. Theo Lehmann
EXTD=
EXTT0=
EXTT1=
EXTT2=
EXTT3=
EXTT4=
EXTT5=
EXTT6=
PLAYORDER=
